<svg width="77" height="77" viewBox="0 0 77 77" fill="none" xmlns="http://www.w3.org/2000/svg">
<path d="M2.9621 76.9999H46.9827C47.7687 76.9999 48.5223 76.6879 49.0776 76.132L76.1327 49.0752C76.688 48.5199 77 47.7669 77 46.9816C77 46.1963 76.688 45.4427 76.1327 44.8874L57.9301 26.6848L59.0063 24.0874H59.007C59.3071 23.3616 59.3071 22.5465 59.0063 21.8206C58.7055 21.0947 58.1291 20.5183 57.4032 20.2182L32.5769 9.9353V2.96109C32.5769 2.17575 32.2649 1.42213 31.7096 0.866844C31.1543 0.311562 30.4007 -0.000473022 29.6154 -0.000473022H2.96137C2.17604 -0.000473022 1.42242 0.311562 0.867134 0.866844C0.311852 1.42213 -0.000183105 2.17575 -0.000183105 2.96109V74.0384C-0.000183105 74.8238 0.311852 75.5774 0.867134 76.1327C1.42242 76.688 2.17604 77 2.96137 77L2.9621 76.9999ZM2.9621 55.0066C4.64582 61.5471 6.3381 69.2623 6.07173 74.0384H2.9621V55.0066ZM7.25636 74.0384C7.58358 67.9672 4.91689 57.5813 2.9621 50.3882V25.0661C5.22896 17.9167 7.27412 9.28133 7.29342 2.96273H10.5022C10.3925 11.5055 9.33678 15.7463 8.31084 19.8463C7.20885 24.2516 6.0719 28.8051 6.0719 38.5007C6.0719 46.5386 7.12299 50.9154 8.23689 55.5525C9.35805 60.2116 10.5142 65.0315 10.5142 74.0394L7.25636 74.0384ZM11.6987 74.0384C11.6987 64.8899 10.5246 60.0008 9.38902 55.274C8.29297 50.7086 7.25636 46.3966 7.25636 38.4995C7.25636 28.9473 8.37554 24.4665 9.45975 20.1345C10.5036 15.9599 11.5772 11.6497 11.6882 2.96086H16.4863C16.7381 9.75789 18.638 16.1814 20.5021 22.3988C22.2195 28.1316 23.8411 33.5449 23.8411 38.4997C23.8411 43.1939 22.1237 47.3989 20.1332 52.2682C17.7064 58.2046 14.9564 64.9315 14.9564 74.0382L11.6987 74.0384ZM21.2292 52.7152C23.1806 47.9396 25.0257 43.4279 25.0257 38.4997C25.0257 33.3718 23.379 27.8765 21.6365 22.0572C19.8 15.9264 17.9259 9.59475 17.6741 2.96104H20.8433C20.8731 10.6347 24.1406 19.5901 26.7962 26.8786C27.9114 29.9334 28.9289 32.7421 29.617 35.1471V44.4594C28.9995 46.1206 28.154 48.0028 27.2272 50.0566C24.185 56.802 20.3997 65.1955 20.8797 74.0384H16.1412C16.1412 65.1642 18.845 58.551 21.2293 52.7152H21.2292ZM29.6161 31.2532C29.0608 29.6554 28.4923 28.0617 27.9086 26.4738C25.2848 19.2775 22.0596 10.4265 22.0284 2.96408H25.3687C25.7845 9.52384 28.7772 15.9387 29.6154 17.6211V31.2547L29.6161 31.2532ZM22.0641 74.0384C21.5875 65.4704 25.3132 57.18 28.3059 50.5439C28.7693 49.518 29.2089 48.5377 29.6161 47.5969V56.4843C29.5719 56.5835 29.2003 57.4911 29.2003 57.4911C27.9668 60.5459 25.3205 67.8149 25.3205 74.0374H22.0628L22.0641 74.0384ZM26.5065 74.0384C26.5065 69.0752 28.3205 63.2585 29.6161 59.731V74.0384H26.5065ZM32.5777 53.6544C36.8646 45.1162 36.9936 38.9313 37.1073 32.9286C37.2078 27.679 37.3354 22.6848 40.0405 16.2124L48.5992 19.7365C41.8927 24.7625 41.6084 31.2422 41.2813 38.6701C40.9408 46.4 40.5495 55.0922 32.577 64.1784V53.6543L32.5777 53.6544ZM32.5777 74.0384V71.9091L32.9373 71.5475C35.2722 69.7601 37.0121 68.3567 38.428 66.9703L35.5392 74.0384L32.5777 74.0384ZM47.8297 74.0384H42.4473C53.3165 66.0124 54.0965 58.8009 54.8237 51.825C55.422 46.1016 56.0037 40.688 62.1284 34.9355L67.0962 39.7778C60.397 42.7632 59.6732 49.3096 58.9915 55.6564C58.6749 58.5929 58.3371 61.5914 57.4321 64.2893L47.8297 74.0384ZM68.0106 40.671L71.536 44.1091C65.9844 45.9065 64.655 50.5849 64.5677 57.0435L59.1675 62.5269C59.6739 60.3355 59.9225 58.0402 60.1671 55.7834C60.8585 49.3564 61.5235 43.2913 68.0093 40.6708L68.0106 40.671ZM65.7953 55.8013C66.0941 49.2561 68.0138 46.2502 72.5064 45.0537L74.483 46.9821L65.7953 55.8013ZM61.2789 34.1075C54.8672 40.1562 54.238 46.0231 53.6457 51.7025C52.9304 58.5584 52.19 65.6469 41.1186 73.5554C40.8 73.7141 40.4357 74.038 39.8408 74.038H38.3157L56.7028 29.6451L61.2789 34.1075ZM47.2736 42.4164C47.0085 36.88 46.8175 32.7768 54.7932 26.9278L47.3655 45.0999C47.3509 44.1579 47.3139 43.2575 47.2736 42.4168L47.2736 42.4164ZM55.6208 24.9043C45.5931 31.6954 45.8033 36.4617 46.089 42.474C46.1749 44.2654 46.2516 46.1256 46.0949 48.2133L39.8149 63.5777C38.0691 65.9442 35.9589 67.7325 32.5768 70.3297V65.929C41.6692 56.1929 42.1041 46.9293 42.4637 38.7216C42.7863 31.3977 43.0858 25.0422 49.906 20.2719L56.4175 22.9532L55.621 24.9021L55.6208 24.9043ZM38.9442 15.7631C36.1545 22.4609 36.0183 27.7765 35.9205 32.908C35.82 38.2242 35.701 43.6865 32.5755 50.8601V13.1434L38.9428 15.7644L38.9442 15.7631ZM29.6139 14.7384C28.4498 11.9634 26.86 7.46214 26.5578 2.96159H29.6151V14.7384H29.6139ZM6.1076 2.96159C6.09571 8.07883 4.70947 14.7901 2.96091 20.956V2.96159H6.1076ZM20.5796 38.5595C19.7579 46.7752 17.6003 51.6789 14.8073 51.6789C11.5687 51.6789 10.5131 42.9793 10.5131 39.9807C10.5131 36.5836 12.678 30.5037 14.8073 30.5037C15.5034 30.5037 16.1546 31.2216 16.741 32.6389C17.9996 35.6771 18.6336 41.4351 15.2258 44.8409H15.2265C14.9938 45.0623 14.6269 45.0577 14.3995 44.831C14.1721 44.6035 14.1674 44.2373 14.3882 44.004C17.2242 41.17 16.5578 36.5796 16.2848 35.241C15.8227 32.9591 15.0143 31.7863 14.7551 31.6812C13.9532 31.6885 11.6978 36.2967 11.6978 39.9808C11.6978 44.0365 13.1211 50.4944 14.8074 50.4944C16.4389 50.4944 18.5728 46.723 19.4005 38.4405C19.9453 32.9939 17.4755 24.5746 15.167 22.023C14.7598 21.5715 14.3691 21.3222 14.067 21.3222C13.0173 21.9397 10.217 31.8833 10.217 36.2781V36.2788C10.217 36.606 9.95192 36.8711 9.62469 36.8711C9.29746 36.8711 9.03238 36.606 9.03238 36.2788C9.03238 32.4538 11.7672 20.1383 14.067 20.1383C14.7261 20.1383 15.3924 20.5058 16.0455 21.2284C18.7876 24.258 21.1186 33.1665 20.5797 38.5594L20.5796 38.5595Z" fill="#E30F16"/>
</svg>
