<svg width="37" height="42" viewBox="0 0 37 42" fill="none" xmlns="http://www.w3.org/2000/svg">
<path d="M33.5667 18.2496L32.4005 17.8969C30.9383 17.4517 30.0021 15.9569 30.2238 14.4116L31.3162 6.93699C31.3408 6.74396 31.3571 6.54214 31.3571 6.34062C31.3571 5.63529 31.1764 4.93816 30.8315 4.3166C30.117 3.0486 28.8273 2.28412 27.3898 2.28412C27.3242 2.28412 27.2583 2.28412 27.1927 2.29261C24.4575 0.873133 20.3343 0 15.5543 0C6.938 0 0.449219 2.83858 0.449219 6.60961V32.8711C0.449219 36.6336 6.938 39.4807 15.5543 39.4807C16.6385 39.4807 17.6816 39.4388 18.6837 39.3463V41.1266C18.6837 41.6052 19.0698 42 19.5379 42H35.226C35.7024 42 36.0802 41.6052 36.0802 41.1266V26.7151H36.1458C36.6222 26.7151 37 26.3202 37 25.8416V22.9441C37 20.7941 35.5874 18.8623 33.5667 18.2493L33.5667 18.2496ZM29.3366 5.1983C29.5337 5.55097 29.6406 5.94582 29.6406 6.34888C29.6406 6.45814 29.6323 6.57559 29.6159 6.68485L28.5236 14.1594C28.1704 16.5613 29.6325 18.8876 31.9077 19.5681L33.0739 19.9207C34.3716 20.3156 35.2834 21.5584 35.2834 22.9357V24.9597H19.4641V22.9357C19.4641 22.2555 19.6775 21.6003 20.08 21.0543C20.4825 20.5083 21.0328 20.1137 21.6816 19.9204L22.8478 19.5678C25.1229 18.8791 26.5851 16.5528 26.2319 14.151L25.1396 6.67638C25.0657 6.16408 25.1642 5.63506 25.4189 5.18987C25.8297 4.46754 26.5604 4.03928 27.3737 4.03928C28.2033 4.03928 28.9344 4.47602 29.337 5.19834L29.3366 5.1983ZM23.4557 6.93677L23.9485 10.3296C21.7143 11.0182 18.8396 11.4634 15.5463 11.4634C10.002 11.4634 5.64888 10.2036 3.53826 8.64997C4.54033 6.71819 9.11526 4.80343 15.5551 4.80343C18.6845 4.80343 21.3785 5.26535 23.4402 5.96248C23.4073 6.28175 23.4073 6.60923 23.4566 6.93669L23.4557 6.93677ZM15.5545 1.74664C19.3244 1.74664 22.5527 2.33451 24.885 3.19131C24.5235 3.49359 24.2116 3.86325 23.9569 4.2915C21.6325 3.50212 18.7248 3.04869 15.546 3.04869C9.31182 3.04869 4.17007 4.78715 2.33813 7.33194C2.21495 7.08853 2.15737 6.83633 2.15737 6.60142C2.15766 4.30821 7.66074 1.7467 15.5544 1.7467L15.5545 1.74664ZM15.5545 37.7255C7.66131 37.7255 2.16623 35.164 2.16623 32.8628L2.16595 9.75901C4.64647 11.8501 9.59123 13.2107 15.5542 13.2107C18.8231 13.2107 21.7884 12.7991 24.2115 12.0853L24.5484 14.4201C24.7701 15.9655 23.834 17.4603 22.3718 17.9054L21.2056 18.2581C20.2035 18.5604 19.3493 19.1653 18.7251 20.0218C18.1009 20.8786 17.7723 21.8861 17.7723 22.953V25.8505C17.7723 26.3291 18.1585 26.7239 18.6265 26.7239H18.6921V37.5916C17.6901 37.6754 16.647 37.7258 15.5547 37.7258L15.5545 37.7255ZM34.3718 40.2449H28.2362V37.3389C28.2362 36.8603 27.8501 36.4655 27.382 36.4655C26.9056 36.4655 26.5278 36.8603 26.5278 37.3389V40.2449H24.2936L24.2939 34.8533C24.2939 34.3746 23.9077 33.9798 23.4397 33.9798C22.9633 33.9798 22.5854 34.3747 22.5854 34.8533V40.2449H20.4005V26.7152H34.3799L34.3718 40.2449Z" fill="white"/>
<path d="M28.5483 6.48308C28.5483 7.13715 28.026 7.66733 27.3818 7.66733C26.7378 7.66733 26.2156 7.13715 26.2156 6.48308C26.2156 5.829 26.7378 5.29883 27.3818 5.29883C28.026 5.29883 28.5483 5.829 28.5483 6.48308Z" fill="white"/>
</svg>
