<svg width="31" height="44" viewBox="0 0 31 44" fill="none" xmlns="http://www.w3.org/2000/svg">
<path d="M28.9455 12.3634H20.2727V1.76344C20.2727 1.50787 20.1712 1.26276 19.9905 1.08205C19.8098 0.901331 19.5647 0.799805 19.3091 0.799805H1.96364C1.70806 0.799805 1.46296 0.901331 1.28224 1.08205C1.10152 1.26276 1 1.50787 1 1.76344V30.6725C1 30.9281 1.10152 31.1732 1.28224 31.3539C1.46296 31.5346 1.70806 31.6362 1.96364 31.6362H10.6364V42.2362C10.6364 42.4917 10.7379 42.7368 10.9186 42.9176C11.0993 43.0983 11.3444 43.1998 11.6 43.1998H28.9455C29.201 43.1998 29.4461 43.0983 29.6269 42.9176C29.8076 42.7368 29.9091 42.4917 29.9091 42.2362V13.3271C29.9091 13.0715 29.8076 12.8264 29.6269 12.6457C29.4461 12.465 29.201 12.3634 28.9455 12.3634ZM24.3786 14.2907C23.9927 15.1464 23.6043 15.9777 23.2149 16.746C23.0994 16.974 23.0791 17.2385 23.1586 17.4814C23.2381 17.7244 23.4109 17.9257 23.6389 18.0413C23.8669 18.1568 24.1315 18.1771 24.3744 18.0976C24.6173 18.018 24.8187 17.8453 24.9342 17.6173C25.4558 16.5881 25.9754 15.463 26.4868 14.2907H27.9818V17.7901C25.6075 22.441 22.9702 25.8952 20.2727 27.9179V24.3624C21.4629 23.2586 22.4808 21.9826 23.2926 20.5769C23.3615 20.4691 23.4083 20.3486 23.4301 20.2224C23.452 20.0963 23.4485 19.9671 23.4199 19.8424C23.3913 19.7176 23.3381 19.5998 23.2634 19.4958C23.1888 19.3919 23.0942 19.3038 22.9851 19.2368C22.876 19.1698 22.7547 19.1252 22.6283 19.1056C22.5018 19.086 22.3726 19.0918 22.2484 19.1226C22.1242 19.1535 22.0074 19.2088 21.9047 19.2853C21.8021 19.3618 21.7158 19.4579 21.6507 19.5682C21.2302 20.2586 20.7701 20.9241 20.2727 21.5614V14.2907H24.3786ZM18.3455 11.2485C17.1372 10.2662 15.955 9.36653 15.0691 8.70162C14.159 7.94396 13.3751 7.04644 12.7467 6.04266C12.6773 5.93458 12.587 5.84147 12.4811 5.76879C12.3752 5.69611 12.2559 5.64534 12.1301 5.61945C12.0043 5.59356 11.8745 5.59309 11.7486 5.61805C11.6226 5.64302 11.5028 5.69292 11.3964 5.76482C11.29 5.83672 11.199 5.92917 11.1288 6.03674C11.0586 6.14431 11.0107 6.26482 10.9877 6.3912C10.9648 6.51757 10.9673 6.64726 10.9952 6.77263C11.0231 6.89801 11.0758 7.01654 11.1502 7.12126C11.8969 8.30398 12.8297 9.35829 13.9127 10.2434C15.0838 11.1222 16.7792 12.4161 18.3455 13.7574V16.5683C17.2602 15.7833 16.1295 15.0634 14.959 14.4123C10.8717 12.1418 7.65237 7.05554 5.51059 2.72708H8.65744C8.89141 3.19926 9.12423 3.67231 9.37728 4.14526C9.43697 4.25685 9.51805 4.35559 9.61591 4.43584C9.71376 4.51609 9.82646 4.57628 9.94757 4.61298C10.0687 4.64968 10.1958 4.66216 10.3218 4.64971C10.4477 4.63727 10.57 4.60014 10.6816 4.54045C10.7931 4.48076 10.8919 4.39967 10.9721 4.30182C11.0524 4.20397 11.1126 4.09127 11.1493 3.97015C11.186 3.84904 11.1985 3.72188 11.186 3.59595C11.1736 3.47001 11.1364 3.34776 11.0767 3.23617C10.9859 3.06637 10.9068 2.89745 10.8183 2.72708H18.3455V11.2485ZM3.36852 2.72708C5.62343 7.47376 9.23109 13.4348 14.0228 16.0966C15.5425 16.9371 16.9885 17.9045 18.3455 18.9883V23.1649C17.0509 21.9057 15.6312 20.6291 14.1399 19.4006C13.9426 19.2381 13.6888 19.1607 13.4344 19.1853C13.18 19.2099 12.9458 19.3346 12.7833 19.5319C12.6209 19.7292 12.5434 19.983 12.5681 20.2374C12.5927 20.4918 12.7174 20.726 12.9147 20.8884C14.8203 22.452 16.6336 24.1248 18.3455 25.8984V29.7089H14.5729C13.2072 27.811 10.1677 24.0604 6.24922 22.1015C5.0583 21.4957 3.94324 20.7512 2.92727 19.8835V11.3952C4.1484 13.1591 5.5412 14.7978 7.08527 16.2872C7.27269 16.4543 7.51794 16.5416 7.7688 16.5306C8.01966 16.5196 8.25631 16.4111 8.42838 16.2282C8.60044 16.0454 8.69433 15.8025 8.69005 15.5515C8.68576 15.3004 8.58365 15.0609 8.40545 14.884C6.29001 12.8016 4.44907 10.4575 2.92727 7.90884V2.72708H3.36852ZM2.92727 22.3236C3.70636 22.8882 4.52889 23.3904 5.38715 23.8254C8.02837 25.2944 10.3341 27.2982 12.1569 29.7089H2.92727V22.3236ZM19.3091 31.6362C19.5647 31.6362 19.8098 31.5346 19.9905 31.3539C20.1712 31.1732 20.2727 30.9281 20.2727 30.6725V30.2381C22.9998 28.571 25.5824 25.7233 27.9818 21.7458V26.4875C26.7152 28.1362 25.2299 29.6048 23.5669 30.8527C22.5868 31.5529 21.6005 32.2972 20.6364 33.0651C20.5344 33.1429 20.4489 33.2402 20.3849 33.3514C20.321 33.4626 20.2799 33.5854 20.264 33.7127C20.2482 33.84 20.2579 33.9692 20.2927 34.0927C20.3274 34.2162 20.3864 34.3315 20.4663 34.4318C20.5462 34.5322 20.6453 34.6156 20.7579 34.6772C20.8704 34.7387 20.9941 34.7772 21.1217 34.7903C21.2493 34.8034 21.3782 34.791 21.5009 34.7536C21.6237 34.7162 21.7377 34.6548 21.8363 34.5728C22.775 33.826 23.7347 33.1019 24.6876 32.4206C25.8834 31.5403 26.987 30.5414 27.9818 29.4391V36.3223C27.8379 36.4001 27.6988 36.4821 27.5508 36.556C25.2997 37.7656 23.2791 39.3622 21.5816 41.2725H14.5906C15.0716 40.7419 15.5871 40.1997 16.1373 39.6459C16.229 39.5568 16.3021 39.4502 16.3523 39.3325C16.4024 39.2148 16.4286 39.0883 16.4293 38.9604C16.4301 38.8324 16.4053 38.7056 16.3565 38.5874C16.3077 38.4691 16.2359 38.3617 16.1452 38.2715C16.0545 38.1813 15.9467 38.1101 15.8281 38.0619C15.7096 38.0138 15.5827 37.9898 15.4547 37.9913C15.3268 37.9927 15.2004 38.0196 15.083 38.0704C14.9656 38.1213 14.8595 38.1949 14.7708 38.2872C13.9654 39.0966 13.2283 39.8888 12.5636 40.6543V31.6362H19.3091ZM24.2864 41.2725C25.3974 40.201 26.639 39.2738 27.9818 38.5126V41.2725H24.2864Z" fill="white" stroke="#E30F16" stroke-width="0.3"/>
<path d="M10.41 18.9169C10.5646 19.0343 10.7532 19.0981 10.9474 19.0986C11.099 19.096 11.248 19.0581 11.3824 18.9877C11.5168 18.9173 11.6329 18.8165 11.7214 18.6933C11.8686 18.4785 11.9266 18.2148 11.8832 17.958C11.8398 17.7012 11.6985 17.4713 11.489 17.3166L11.2085 17.1082C11.1069 17.0309 10.9909 16.9746 10.8673 16.9425C10.7438 16.9105 10.6151 16.9033 10.4887 16.9213C10.3623 16.9394 10.2408 16.9825 10.1312 17.0479C10.0216 17.1134 9.92609 17.1999 9.85023 17.3026C9.77436 17.4053 9.71966 17.522 9.68929 17.646C9.65892 17.77 9.65349 17.8988 9.67331 18.0249C9.69314 18.151 9.73782 18.2719 9.80477 18.3806C9.87172 18.4893 9.9596 18.5836 10.0633 18.6581L10.41 18.9169Z" fill="white" stroke="#E30F16" stroke-width="0.3"/>
<path d="M18.1104 37.4179C18.348 37.4181 18.5772 37.3302 18.7537 37.1713L18.9843 36.9662C19.079 36.8823 19.1563 36.7806 19.2117 36.6668C19.2671 36.553 19.2995 36.4294 19.3072 36.3031C19.3148 36.1768 19.2975 36.0502 19.2562 35.9306C19.215 35.811 19.1505 35.7006 19.0666 35.6059C18.9827 35.5112 18.8809 35.4339 18.7672 35.3785C18.6534 35.3231 18.5298 35.2907 18.4035 35.283C18.2772 35.2754 18.1506 35.2927 18.031 35.3339C17.9113 35.3752 17.801 35.4397 17.7063 35.5236L17.4663 35.7372C17.3212 35.8675 17.219 36.0388 17.1733 36.2284C17.1276 36.418 17.1405 36.617 17.2103 36.7991C17.2801 36.9812 17.4035 37.1379 17.5642 37.2484C17.7249 37.3588 17.9154 37.418 18.1104 37.4179Z" fill="white" stroke="#E30F16" stroke-width="0.3"/>
</svg>
