<svg width="14" height="11" viewBox="0 0 14 11" fill="none" xmlns="http://www.w3.org/2000/svg">
<path fill-rule="evenodd" clip-rule="evenodd" d="M9.1875 5.59014L14 0.962528V10.1597L9.1875 5.59014ZM0.28434 0.320865C0.375731 0.219459 0.484673 0.138878 0.60484 0.0838015C0.725007 0.0287251 0.854005 0.000251321 0.98434 3.36336e-05H13.0157C13.1428 -0.00107759 13.269 0.0253568 13.3867 0.077806C13.5045 0.130255 13.6115 0.207677 13.7017 0.305588C13.7029 0.307421 7 6.61207 7 6.61207C7 6.61207 0.28406 0.321629 0.28434 0.320865ZM0 10.1585V0.962528L4.8125 5.59167L0 10.1585ZM6.9804 7.69403L8.75 6.01089C8.75 6.01089 13.6731 10.6934 13.672 10.6944C13.5821 10.7922 13.4753 10.8696 13.3579 10.922C13.2404 10.9745 13.1146 11.001 12.9877 11H0.97314C0.842928 10.9998 0.714056 10.9713 0.594024 10.9162C0.473993 10.8611 0.365201 10.7805 0.27398 10.6791L5.25 6.01089L6.9804 7.69403Z" fill="#E30F16"/>
</svg>
