<svg width="35" height="42" viewBox="0 0 35 42" fill="none" xmlns="http://www.w3.org/2000/svg">
<path d="M13.9454 0C12.5885 0 11.4845 1.10396 11.4845 2.46093V4.59378C11.4845 5.04679 11.8516 5.41419 12.3049 5.41419H13.9454V7.86097C11.5966 8.31578 9.35436 9.26416 7.38762 10.634L5.50224 8.74867C4.54302 7.78914 2.9821 7.78914 2.02234 8.74867C1.06281 9.7082 1.06281 11.269 2.02234 12.2286L3.78813 13.9947C1.34013 17.0435 0 20.8412 0 24.7735C0 34.2719 7.72807 42 17.2265 42C26.7249 42 34.453 34.2719 34.453 24.7735C34.453 20.8415 33.1128 17.0439 30.6651 13.9947L32.4309 12.2286C33.3904 11.2693 33.3904 9.70843 32.4309 8.74867C31.4714 7.78914 29.9105 7.78914 28.951 8.74867L27.0656 10.634C25.0989 9.26423 22.8567 8.31608 20.5078 7.86097V5.41419H22.1483C22.6013 5.41419 22.9687 5.0471 22.9687 4.59378V2.46123C22.9687 1.10426 21.8648 0.00030763 20.5078 0.00030763L13.9454 0ZM13.9454 1.64051H20.5078C20.9602 1.64051 21.3282 2.00852 21.3282 2.46093V3.77337H13.1249V2.46093C13.1249 2.00852 13.4929 1.64051 13.9453 1.64051H13.9454ZM15.586 5.41388H18.867V7.62426C17.7798 7.52242 16.6735 7.52242 15.5857 7.62426L15.586 5.41388ZM17.2265 9.18725C18.0105 9.18725 18.7976 9.24583 19.5654 9.36088C22.1324 9.7475 24.5837 10.7848 26.6551 12.3608C27.4812 12.9895 28.2493 13.7048 28.9376 14.4873C31.4363 17.3291 32.8125 20.9818 32.8125 24.7732C32.8125 33.3672 25.8206 40.3593 17.2264 40.3593C8.63223 40.3593 1.64028 33.3674 1.64028 24.7732C1.64028 20.9821 3.01648 17.3294 5.51524 14.4873C6.20347 13.7044 6.97165 12.9892 7.79806 12.3608C9.86908 10.7848 12.3204 9.74756 14.8871 9.36088C15.6552 9.24613 16.4423 9.18725 17.2263 9.18725H17.2265ZM3.76214 9.6685C3.97213 9.6685 4.1821 9.74841 4.34223 9.90823L6.07649 11.6428C5.65982 11.997 5.25938 12.3707 4.87755 12.763L3.18236 11.0681C2.86303 10.7482 2.86303 10.2278 3.18236 9.90823C3.34217 9.74841 3.55216 9.6685 3.76245 9.6685H3.76214ZM30.6916 9.6685C30.9016 9.6685 31.1115 9.74841 31.2714 9.90823C31.5907 10.2282 31.5907 10.7485 31.2714 11.0681L29.5762 12.763C29.1944 12.3706 28.7936 11.9969 28.3772 11.6428L30.1115 9.90823C30.2716 9.74841 30.4816 9.6685 30.6916 9.6685H30.6916ZM17.2265 12.4686C16.7738 12.4686 16.4061 12.836 16.4061 13.289C16.4061 13.7417 16.7735 14.1094 17.2265 14.1094C17.6792 14.1094 18.0469 13.742 18.0469 13.289C18.0469 12.8363 17.6795 12.4686 17.2265 12.4686ZM20.4621 12.936C20.1125 12.9411 19.7919 13.1709 19.6877 13.5239C19.5594 13.9583 19.8076 14.4146 20.242 14.5429C21.6782 14.967 23.018 15.7004 24.1598 16.679L23.6065 17.2324C23.2862 17.5529 23.2862 18.0723 23.6065 18.3926C23.7666 18.5527 23.9766 18.6329 24.1869 18.6329C24.3969 18.6329 24.6065 18.5527 24.767 18.3926L25.3215 17.838C26.8058 19.5638 27.6872 21.6883 27.859 23.9525H27.0701C26.6171 23.9525 26.2497 24.3199 26.2497 24.7729C26.2497 25.2259 26.6168 25.5933 27.0701 25.5933H27.859C27.6872 27.858 26.8058 29.9822 25.3215 31.7081L24.767 31.1532C24.4464 30.833 23.927 30.833 23.6068 31.1532C23.2862 31.4738 23.2862 31.9932 23.6068 32.3134L24.1613 32.868C22.4355 34.3523 20.3111 35.2337 18.0469 35.4058V34.6169C18.0469 34.1639 17.6795 33.7965 17.2264 33.7965C16.7734 33.7965 16.406 34.1636 16.406 34.6169V35.4058C14.1419 35.234 12.0174 34.3526 10.2916 32.8683L10.8461 32.3137C11.1666 31.9932 11.1666 31.4738 10.8461 31.1536C10.5256 30.8333 10.0062 30.8333 9.68592 31.1536L9.13138 31.7081C7.64706 29.9823 6.76566 27.8578 6.59386 25.5936H7.38274C7.83575 25.5936 8.20315 25.2265 8.20315 24.7732C8.20315 24.3202 7.83606 23.9528 7.38274 23.9528H6.59386C6.76569 21.6887 7.64706 19.5642 9.13138 17.8383L9.68592 18.3929C9.84604 18.553 10.056 18.6332 10.266 18.6332C10.4763 18.6332 10.686 18.553 10.8464 18.3929C11.1666 18.0723 11.1666 17.5529 10.8464 17.2327L10.293 16.6793C11.4352 15.7001 12.7747 14.9673 14.2109 14.5432C14.6453 14.4149 14.8934 13.9586 14.7652 13.5242C14.6369 13.0898 14.1815 12.842 13.7462 12.97C11.8083 13.5419 10.0227 14.5999 8.5774 16.0299C8.56028 16.0443 8.54376 16.059 8.52814 16.0747C8.51402 16.0888 8.5014 16.1035 8.48878 16.1182C6.18828 18.44 4.92205 21.5111 4.92205 24.7737C4.92205 28.0359 6.18828 31.1066 8.48817 33.4285C8.50108 33.4435 8.5137 33.4586 8.52812 33.4727C8.54224 33.4871 8.55696 33.4997 8.57168 33.5123C10.8935 35.8125 13.9643 37.0788 17.2264 37.0788C20.4886 37.0788 23.5593 35.8128 25.8812 33.5129C25.8962 33.4997 25.9113 33.4871 25.9254 33.4727C25.9395 33.4589 25.9521 33.4439 25.9647 33.4294C28.2652 31.1076 29.5315 28.0365 29.5315 24.7739C29.5315 21.5118 28.2652 18.441 25.9653 16.1191C25.9524 16.1041 25.9398 16.0891 25.9254 16.075C25.9101 16.0593 25.8935 16.0452 25.8773 16.0311C24.4315 14.6005 22.6456 13.5423 20.7071 12.9699C20.6257 12.9459 20.5434 12.9351 20.4625 12.9363L20.4621 12.936ZM17.2265 15.7499C16.7735 15.7499 16.4061 16.117 16.4061 16.5703V22.4535C15.4511 22.792 14.7656 23.7041 14.7656 24.7735C14.7656 26.1305 15.8695 27.2344 17.2265 27.2344C18.5834 27.2344 19.6874 26.1305 19.6874 24.7735C19.6874 23.7044 19.0016 22.7923 18.0469 22.4535V16.57C18.0469 16.117 17.6795 15.7499 17.2265 15.7499ZM17.2265 23.9533C17.6789 23.9533 18.0469 24.3213 18.0469 24.7737C18.0469 25.2261 17.6789 25.5941 17.2265 25.5941C16.7741 25.5941 16.4061 25.2261 16.4061 24.7737C16.4061 24.3213 16.7741 23.9533 17.2265 23.9533Z" fill="#E30F16"/>
</svg>
