<svg width="76" height="80" viewBox="0 0 76 80" fill="none" xmlns="http://www.w3.org/2000/svg">
<path d="M67.0748 8.98013H40.83C40.1208 8.98013 39.6195 9.5857 39.6195 10.1906C39.6195 10.8998 40.2251 11.401 40.83 11.401H67.0748C67.7792 11.401 68.2785 10.8036 68.2852 10.2028C68.3336 9.88338 68.1978 9.57689 67.976 9.35522C67.751 9.13021 67.4263 8.98013 67.0748 8.98013Z" fill="#E30F16" stroke="#E30F16" stroke-width="0.3"/>
<path d="M68.2857 15.934V15.9338C68.2851 15.3292 67.7846 14.7235 67.0753 14.7235H64.8661C64.1569 14.7235 63.6557 15.3291 63.6557 15.934C63.6557 16.6432 64.2612 17.1445 64.8661 17.1445H67.0753C67.7845 17.1445 68.2857 16.5389 68.2857 15.934Z" fill="#E30F16" stroke="#E30F16" stroke-width="0.3"/>
<path d="M51.787 17.2323C52.4962 17.2323 52.9975 16.6268 52.9975 16.0219C52.9975 15.3127 52.3919 14.8114 51.787 14.8114H47.4569C46.7477 14.8114 46.2465 15.417 46.2465 16.0219C46.2465 16.7311 46.8521 17.2323 47.4569 17.2323H51.787Z" fill="#E30F16" stroke="#E30F16" stroke-width="0.3"/>
<path d="M60.4481 14.7235H56.1181C55.4089 14.7235 54.9076 15.3291 54.9076 15.934C54.9076 16.6432 55.5132 17.1445 56.1181 17.1445H60.4481C61.1494 17.1445 61.6586 16.6352 61.6586 15.934C61.6586 15.2321 61.1493 14.7235 60.4481 14.7235Z" fill="#E30F16" stroke="#E30F16" stroke-width="0.3"/>
<path d="M40.83 17.2323H43.0391C43.7483 17.2323 44.2496 16.6268 44.2496 16.0219C44.2496 15.3127 43.644 14.8114 43.0391 14.8114H40.83C40.1208 14.8114 39.6195 15.417 39.6195 16.0219C39.6195 16.7231 40.1281 17.2323 40.83 17.2323Z" fill="#E30F16" stroke="#E30F16" stroke-width="0.3"/>
<path d="M57.1777 20.4674H40.83C40.1208 20.4674 39.6195 21.073 39.6195 21.6779C39.6195 22.0722 39.7688 22.3788 40.0013 22.5854C40.231 22.7896 40.5329 22.8884 40.83 22.8884H57.1777C57.8869 22.8884 58.3881 22.2828 58.3881 21.6779C58.3881 21.364 58.2327 21.0627 58.0128 20.8428C57.7929 20.6229 57.4916 20.4674 57.1777 20.4674Z" fill="#E30F16" stroke="#E30F16" stroke-width="0.3"/>
<path d="M67.8159 31.4603H73.4984C73.8927 31.4603 74.1993 31.311 74.4059 31.0786C74.61 30.8489 74.7088 30.5469 74.7088 30.2499V2.06046C74.7088 1.35126 74.1033 0.85 73.4984 0.85L32.3193 0.850576C31.6102 0.850576 31.1089 1.45615 31.1089 2.06104V8.62716H30.3382C17.8836 8.62716 7.83111 18.68 7.83111 31.1342V38.0664C5.68804 38.2759 3.95129 39.2615 2.74629 40.8866C1.51797 42.5432 0.85 44.8529 0.85 47.659V54.7283C0.85 57.6678 1.58479 60.0683 2.92667 61.7372C4.24917 63.3819 6.15115 64.3027 8.48106 64.3329C10.3891 72.2101 16.8898 78.0304 27.4165 78.384L27.4165 78.3841H27.4216H34.4299C34.8992 78.8303 35.5417 79.0913 36.3467 79.0913L42.1798 79.0901V79.0903L42.1872 79.09C44.0318 78.9979 45.507 77.522 45.5991 75.6781L45.5991 75.6777C45.6913 73.7374 44.213 72.0816 42.1933 71.8983L42.1934 71.8977H42.1798H36.259V71.8975L36.2516 71.8979C34.407 71.9899 32.9318 73.4659 32.8397 75.3098L32.8395 75.3097V75.3172V75.8744H27.4253C19.4592 75.5272 14.0745 71.5975 11.6632 66.4584C12.0046 66.4659 12.6573 66.4819 13.3012 66.4979C13.7429 66.5089 14.1792 66.52 14.505 66.5282L14.8978 66.5382L15.0074 66.541L15.0363 66.5418L15.0437 66.542L15.0455 66.542L15.046 66.542H15.0461L15.05 66.3921L15.0462 66.5421H15.05C17.1566 66.5421 18.9036 64.9839 19.0874 62.9592L19.088 62.9592V62.9456V62.5036L19.0886 39.9695C19.0886 37.6731 17.2494 35.9314 14.9619 35.9314H11.7806C11.1313 35.9314 10.5532 36.0755 9.98658 36.3608V31.0443C9.98658 19.9929 18.9328 11.0474 29.9835 11.0474H30.7542L30.7548 30.162C30.7548 30.8712 31.3603 31.3725 31.9652 31.3725H38.7957V37.8498C38.7957 38.1406 38.8688 38.3922 39.01 38.5975C39.151 38.8025 39.3534 38.9519 39.5972 39.0495C39.8447 39.1485 40.1148 39.1727 40.3603 39.1359C40.6043 39.0992 40.8356 39.0001 40.9964 38.8394L48.3751 31.4606H65.3059V36.2025C64.8206 36.0013 64.3288 35.9326 63.777 35.9326H60.5957C58.3015 35.9326 56.5577 37.7696 56.5577 39.9707V62.4162C56.5577 64.7105 58.3947 66.4543 60.5957 66.4543H63.777C65.3067 66.4543 66.5711 65.6588 67.3098 64.4212C69.6978 64.3995 71.6335 63.4782 72.9844 61.8146C74.3484 60.135 75.1052 57.7128 75.15 54.7302V54.728V47.6586C75.1497 44.8512 74.4366 42.5184 73.1405 40.8617C71.8695 39.2371 70.0457 38.2736 67.8159 38.1491V31.4603ZM36.2693 74.4078H42.1791C42.492 74.4078 42.7155 74.5236 42.8624 74.6888C43.0117 74.8568 43.0896 75.0851 43.0896 75.3183C43.0896 75.6891 42.9865 75.985 42.8247 76.1849C42.6645 76.3827 42.4418 76.4938 42.1791 76.4938H36.2584C35.7308 76.4938 35.3479 76.0389 35.3479 75.5834C35.3479 75.2139 35.4501 74.9413 35.6105 74.7525C35.769 74.5662 35.9949 74.449 36.2693 74.4078ZM3.2704 54.6406V47.5713C3.2704 46.5192 3.4025 44.8426 4.05282 43.3795C4.68242 41.963 5.79174 40.7556 7.74251 40.4939V61.7143C5.79224 61.411 4.68251 60.1824 4.05284 58.7658C3.40236 57.3023 3.2704 55.6476 3.2704 54.6406ZM12.0455 38.4429H15.2268C16.1111 38.4429 16.7557 39.1659 16.7557 39.9718V62.4174C16.7557 63.3017 16.0327 63.9463 15.2268 63.9463H12.0455C11.7102 63.9463 11.3068 63.7175 10.9797 63.3166C10.6563 62.9203 10.428 62.3787 10.428 61.799V39.9786C10.5124 39.085 11.2436 38.4429 12.0455 38.4429ZM47.959 28.8644C47.4631 28.8644 47.1621 29.069 46.8806 29.3504L41.3043 34.9268L41.3048 30.1631C41.3048 29.4466 40.6913 28.9526 40.0061 28.9526H33.6171L33.6165 3.27189H72.2868V28.8641L47.959 28.8644ZM63.777 63.9455H60.5957C59.7113 63.9455 59.0668 63.2226 59.0668 62.4166V39.9711C59.0668 39.0867 59.7898 38.4422 60.5957 38.4422H63.777C64.5007 38.4422 65.1398 38.9203 65.3058 39.6346V62.8396C65.1404 63.4648 64.5034 63.9455 63.777 63.9455ZM72.6403 54.817C72.6403 55.8692 72.5082 57.5667 71.8257 59.0398C71.1642 60.4678 69.9897 61.6802 67.9031 61.8989L67.9037 40.6658C69.9902 40.8843 71.1647 42.0967 71.8263 43.5248C72.5087 44.9979 72.6409 46.6955 72.6409 47.7477L72.6403 54.817Z" fill="#E30F16" stroke="#E30F16" stroke-width="0.3"/>
</svg>
