<svg width="104" height="61" viewBox="0 0 104 61" fill="none" xmlns="http://www.w3.org/2000/svg">
<path d="M103.663 26.6635L103.663 26.6635C103.576 26.448 103.442 26.2529 103.278 26.088L103.273 26.0833L84.8987 7.79321L103.663 26.6635ZM103.663 26.6635L103.665 26.6684M103.663 26.6635L103.665 26.6684M103.665 26.6684C103.671 26.6806 103.675 26.6996 103.681 26.743C103.682 26.7481 103.683 26.7538 103.684 26.76C103.688 26.7961 103.695 26.8486 103.709 26.8996C103.722 26.9527 103.735 26.9996 103.746 27.0429C103.777 27.1552 103.8 27.2428 103.8 27.3482C103.8 27.3483 103.8 27.3485 103.8 27.3486L103.751 50.2302C103.746 51.206 102.957 51.999 101.978 51.999H94.6629H94.4987L94.4667 52.16C93.5626 56.7151 89.5337 60.1628 84.7186 60.1628C79.9035 60.1628 75.8748 56.7151 74.9705 52.16L74.9385 51.999H74.7743H41.0383H40.8743L40.8422 52.1598C39.9332 56.7151 35.9043 60.1628 31.0892 60.1628C26.2741 60.1628 22.2453 56.7151 21.3411 52.16L21.3091 51.999H21.1449H15.0727C11.5768 51.999 8.72658 49.1526 8.72658 45.6528V35.2048C8.72658 34.2252 9.51982 33.4319 10.4994 33.4319L68.084 33.4327L68.2847 33.4328L68.284 33.2321L68.2047 9.04802V9.04736V9.04306V9.03811V6.88744C68.2047 5.34229 66.9513 4.08293 65.4051 4.08293H15.0717C13.5255 4.08293 12.272 5.34222 12.272 6.88744C12.272 7.86671 11.4742 8.66027 10.4992 8.66027C9.52423 8.66027 8.72637 7.86671 8.72637 6.88744C8.72637 3.3867 11.5775 0.536426 15.0774 0.536426H65.4066C68.9073 0.536426 71.7576 3.38751 71.7576 6.88744V7.06866V7.26849L71.9574 7.26866L83.6483 7.27857H83.6485M103.665 26.6684L83.6485 7.27857M83.6485 7.27857C84.1177 7.27857 84.5651 7.46446 84.898 7.79259L83.6485 7.27857ZM97.2485 25.5702H97.7328L97.3896 25.2284L82.9803 10.8793L82.9218 10.8211L82.8393 10.821L71.9676 10.8111L71.7668 10.8109L71.7675 11.0118L71.817 25.3708L71.8177 25.5701H72.017H84.8962H85.0329L85.0825 25.4429L86.4839 21.8524L86.484 21.852C86.8387 20.9386 87.8662 20.4869 88.7795 20.846L88.7803 20.8463C89.6937 21.2009 90.1454 22.2284 89.7863 23.1417L89.7862 23.142L88.943 25.2973L88.8363 25.5702H89.1293H97.2485ZM21.145 48.4533H21.3091L21.3412 48.2924C22.2504 43.732 26.2743 40.2894 31.0893 40.2894H31.0906C35.9066 40.2894 39.9345 43.7321 40.8396 48.2922L40.8715 48.4533H41.0357H68.14H68.3406L68.34 48.2526L68.3053 37.1786L68.3046 36.9792H68.1053H12.4783H12.2783V37.1792V45.6536C12.2783 47.1939 13.5316 48.4533 15.0729 48.4533H21.145ZM94.4627 48.2924L94.4948 48.4533L94.6588 48.4533L100.007 48.4539L100.207 48.4539L100.207 48.2543L100.247 29.3171L100.247 29.1166H100.047H72.027H71.8265L71.827 29.3172L71.8427 34.9592L71.8427 34.9706L71.8441 34.982C71.8504 35.0354 71.8651 35.0869 71.8746 35.1199C71.876 35.125 71.8774 35.1297 71.8785 35.1339C71.8889 35.1713 71.8923 35.1898 71.8923 35.2055C71.8923 35.217 71.8898 35.2317 71.8792 35.268C71.8781 35.2717 71.8769 35.2757 71.8756 35.2801C71.866 35.3123 71.8506 35.3638 71.8441 35.4192L71.8427 35.4312L71.8427 35.4432L71.8873 48.254L71.888 48.4533H72.0873H74.7702H74.9343L74.9664 48.2924C75.8756 43.732 79.8995 40.2894 84.7145 40.2894C89.5295 40.2894 93.5535 43.737 94.4627 48.2924ZM24.7032 50.2261C24.7032 53.7502 27.5699 56.6171 31.0893 56.6171C34.6135 56.6171 37.4803 53.7503 37.4803 50.2261C37.4803 46.7019 34.6135 43.8351 31.0893 43.8351C27.5699 43.8351 24.7032 46.702 24.7032 50.2261ZM78.3324 50.2261C78.3324 53.7502 81.1991 56.6171 84.7185 56.6171C88.238 56.6171 91.1047 53.7502 91.1047 50.2261C91.1047 46.702 88.238 43.8351 84.7185 43.8351C81.1991 43.8351 78.3324 46.702 78.3324 50.2261Z" fill="#E30F16" stroke="white" stroke-width="0.4"/>
<path d="M33.6835 50.2272C33.6835 51.6527 32.5277 52.8092 31.1014 52.8092C29.6759 52.8092 28.5193 51.6527 28.5193 50.2272C28.5193 48.8008 29.6759 47.6451 31.1014 47.6451C32.5278 47.6451 33.6835 48.8008 33.6835 50.2272Z" fill="#E30F16" stroke="white" stroke-width="0.4"/>
<path d="M87.1142 50.2272C87.1142 51.6527 85.9584 52.8092 84.5321 52.8092C83.1066 52.8092 81.95 51.6527 81.95 50.2272C81.95 48.8008 83.1065 47.6451 84.5321 47.6451C85.9584 47.6451 87.1142 48.8008 87.1142 50.2272Z" fill="#E30F16" stroke="white" stroke-width="0.4"/>
<path d="M7.72676 19.2008H7.72676L61.1345 19.2C61.9808 19.2 62.6612 19.8847 62.6612 20.7268C62.6612 21.5684 61.9762 22.2535 61.1345 22.2535H7.72676C6.885 22.2535 6.2 21.5684 6.2 20.7276C6.2 19.8859 6.88507 19.2008 7.72676 19.2008Z" fill="#E30F16" stroke="white" stroke-width="0.4"/>
<path d="M1.72676 12.2008H1.72676L55.1345 12.2C55.9808 12.2 56.6612 12.8847 56.6612 13.7268C56.6612 14.5684 55.9762 15.2535 55.1345 15.2535H1.72676C0.885953 15.2535 0.200777 14.5685 0.2 13.7275C0.200048 12.8858 0.885095 12.2008 1.72676 12.2008Z" fill="#E30F16" stroke="white" stroke-width="0.4"/>
<path d="M1.72676 26.2008H1.72676C0.885066 26.2008 0.2 26.8859 0.2 27.7276C0.2 28.5696 0.880472 29.2543 1.72676 29.2543L64.1343 29.2543L64.1345 29.2543M1.72676 26.2008L64.1345 29.4543V29.2543M1.72676 26.2008L64.1345 26.2C64.9808 26.2 65.6612 26.8847 65.6612 27.7268C65.6612 28.5684 64.9763 29.2535 64.1345 29.2543M1.72676 26.2008L64.1345 29.2543" fill="#E30F16" stroke="white" stroke-width="0.4"/>
</svg>
