<svg width="58" height="79" viewBox="0 0 58 79" fill="none" xmlns="http://www.w3.org/2000/svg">
<path d="M38.7726 0H0V78.7905H58V18.8123L38.7726 0ZM39.653 5.01455L52.8771 17.9523H39.653V5.00484V5.01455ZM2.96807 75.8234V2.96747H36.6857V20.9196H55.0335V75.8251L2.96807 75.8234Z" fill="#E30F16"/>
<path d="M22.9072 27.5564H49.4045V30.5239H22.9072V27.5564Z" fill="#E30F16"/>
<path d="M12.6307 29.1391L9.62406 26.122L7.52734 28.2187L12.6309 33.3325L19.7918 26.1716L17.6951 24.0645L12.6307 29.1391Z" fill="#E30F16"/>
<path d="M22.9072 41.3438H49.4045V44.3112H22.9072V41.3438Z" fill="#E30F16"/>
<path d="M12.6307 43.5692L9.62406 40.5521L7.52734 42.6495L12.6309 47.7627L19.7918 40.592L17.6951 38.4946L12.6307 43.5692Z" fill="#E30F16"/>
<path d="M22.9072 55.1418H49.4045V58.1093H22.9072V55.1418Z" fill="#E30F16"/>
<path d="M12.6307 57.9907L9.62406 54.984L7.52734 57.0807L12.6309 62.1938L19.7918 55.0232L17.6951 52.9265L12.6307 57.9907Z" fill="#E30F16"/>
</svg>
