<svg width="62" height="37" viewBox="0 0 62 37" fill="none" xmlns="http://www.w3.org/2000/svg">
<path d="M0.00177765 18.4844V27.7126C0.00177765 28.9209 0.984402 29.9036 2.19271 29.9036H5.98254C5.99732 33.4969 8.92436 36.4161 12.5207 36.4161C16.117 36.4161 19.0435 33.4967 19.0583 29.9036L42.2886 29.903C42.3034 33.4964 45.2299 36.4156 48.8268 36.4156C52.4231 36.4156 55.3496 33.4962 55.3649 29.903H59.1538C60.3621 29.903 61.3447 28.9204 61.3447 27.7121V16.5758C61.3447 16.0715 61.169 15.5789 60.8496 15.1892L53.2183 5.84631C52.8006 5.33487 52.1817 5.04146 51.5215 5.04146H37.2043C35.996 5.04146 35.0133 6.02409 35.0133 7.2324V16.2929H32.0665L32.067 2.19094C32.067 0.982654 31.0843 0 29.876 0H6.59871C5.39043 0 4.40778 0.982628 4.40778 2.19094V16.2929H2.19141C0.983639 16.2929 0.000473022 17.2756 0.000473022 18.4839L0.00177765 18.4844ZM43.7475 29.8759C43.7475 27.0752 46.0255 24.7978 48.8261 24.7978C51.6268 24.7978 53.9047 27.0759 53.9047 29.8759C53.9047 32.6766 51.6267 34.9551 48.8261 34.9551C46.0254 34.9551 43.7475 32.6765 43.7475 29.8759ZM36.4744 7.23237C36.4744 6.82995 36.8019 6.50189 37.2049 6.50189H51.522C51.7421 6.50189 51.9484 6.5997 52.0875 6.77035L59.7192 16.1136C59.8256 16.2435 59.8837 16.4075 59.8837 16.5751V27.7115C59.8837 28.1144 59.5562 28.4419 59.1532 28.4419H55.2018C54.5457 25.5246 51.9387 23.3363 48.8257 23.3363C47.5354 23.3363 46.3347 23.7168 45.32 24.3643L42.6747 21.4358C42.5448 21.2916 42.4735 21.1072 42.4735 20.9136V16.7845L55.6014 16.785C56.0287 16.785 56.4077 16.5456 56.5911 16.159C56.7745 15.7723 56.72 15.3276 56.45 14.9965L51.3316 8.72989C51.1218 8.47367 50.8131 8.32747 50.4835 8.32747H40.752C40.1479 8.32747 39.6568 8.81904 39.6568 9.42267V15.6893C39.6568 16.2934 40.1484 16.7845 40.752 16.7845H41.0154V20.9136C41.0154 21.4694 41.2201 22.0017 41.593 22.4149L44.1818 25.2802C43.3347 26.1365 42.7254 27.2261 42.4519 28.4415H37.2061C36.8036 28.4415 36.4756 28.114 36.4756 27.711L36.4744 7.23237ZM41.116 15.3247V9.78857L50.3091 9.78806L54.831 15.3242L41.116 15.3247ZM17.5075 9.68764H5.86883V2.19091C5.86883 1.78849 6.19637 1.46043 6.59931 1.46043H17.5074L17.5075 9.68764ZM17.5075 16.2929H5.86883V11.148H17.5075V16.2929ZM30.6067 9.68764H18.9685V1.46038H29.8763C30.2787 1.46038 30.6068 1.78792 30.6068 2.19086L30.6067 9.68764ZM30.6067 16.2929H18.9685V11.148H30.6067V16.2929ZM7.44152 29.8759C7.44152 27.0752 9.72009 24.7978 12.5207 24.7978C15.3212 24.7978 17.5988 27.0759 17.5988 29.8759C17.5988 32.6766 15.3207 34.9551 12.5207 34.9551C9.71996 34.9551 7.44152 32.6765 7.44152 29.8759ZM1.46271 18.4844C1.46271 18.0814 1.79024 17.7539 2.19318 17.7539H35.0148V27.7125C35.0148 27.9698 35.0678 28.2133 35.1493 28.443H18.8969C18.2413 25.5257 15.6342 23.3374 12.5213 23.3374C9.40839 23.3374 6.80082 25.5252 6.14514 28.443H2.19373C1.7908 28.443 1.46326 28.1155 1.46326 27.7125L1.46271 18.4844ZM8.88054 29.8759C8.88054 31.883 10.5136 33.515 12.5207 33.515C14.5277 33.515 16.1598 31.8823 16.1598 29.8759C16.1598 27.8688 14.5271 26.2368 12.5207 26.2368C10.5136 26.2368 8.88054 27.8695 8.88054 29.8759ZM10.3415 29.8759C10.3415 28.6743 11.319 27.6972 12.5207 27.6972C13.7223 27.6972 14.6993 28.6743 14.6993 29.8759C14.6993 31.0776 13.7223 32.0546 12.5207 32.0546C11.319 32.0546 10.3415 31.0776 10.3415 29.8759ZM45.1877 29.8759C45.1877 31.883 46.8203 33.515 48.8273 33.515C50.8342 33.515 52.4664 31.8823 52.4664 29.8759C52.4664 27.8688 50.8337 26.2368 48.8273 26.2368C46.8209 26.2368 45.1877 27.8695 45.1877 29.8759ZM46.6486 29.8759C46.6486 28.6743 47.6261 27.6972 48.8278 27.6972C50.0289 27.6972 51.0065 28.6743 51.0065 29.8759C51.0065 31.0776 50.0289 32.0546 48.8278 32.0546C47.6256 32.0546 46.6486 31.0776 46.6486 29.8759ZM44.2794 21.3339C43.8759 21.3339 43.5489 21.0073 43.5489 20.6034V19.3859C43.5489 18.9825 43.8759 18.6555 44.2794 18.6555C44.6828 18.6555 45.0099 18.982 45.0099 19.3859V20.6034C45.0094 21.0073 44.6823 21.3339 44.2794 21.3339Z" fill="#E30F16"/>
</svg>
