<svg width="82" height="57" viewBox="0 0 82 57" fill="none" xmlns="http://www.w3.org/2000/svg">
<path d="M79.9577 29.1814H75.1507C70.179 29.1814 66.1312 25.1737 66.052 20.2202L72.3363 9.22999C72.694 8.60466 72.4755 7.80729 71.852 7.45049L68.5362 5.55174C68.2358 5.37971 67.8799 5.3342 67.544 5.42522C67.21 5.51351 66.9251 5.7356 66.7548 6.03599L63.63 11.4992L56.8969 7.64803C56.5984 7.4769 56.2379 7.43048 55.9066 7.52241C55.5725 7.61253 55.2876 7.83279 55.1174 8.13318L43.0824 29.1815L24.0148 29.1824C22.9216 28.142 22.0286 26.9377 21.336 25.6006C20.707 24.3873 20.2737 22.706 20.2373 22.5485C19.9943 21.5035 19.8723 20.4632 19.8723 19.461C19.8723 15.3086 22.0032 12.7225 24.2578 9.98358L24.9432 9.14708C25.9663 7.88275 26.3213 6.41188 25.9444 5.00817C25.4811 3.28328 23.982 1.85773 21.7247 0.995791C20.0935 0.372275 18.0345 0 16.2123 0C13.2942 0 11.349 0.935716 10.7382 2.63336C10.2685 3.93317 10.7145 4.91988 11.1087 5.78823C11.4627 6.5674 11.8614 7.44941 11.8614 8.98038C11.8614 13.892 10.1975 17.402 6.46818 20.363C3.10943 23.0273 0 26.315 0 32.2598C0 37.0512 2.38939 41.2875 6.03127 43.8635H1.33707C0.617086 43.8635 0.0317836 44.447 0.0317836 45.1688V55.2814C0.0317836 56.0033 0.616154 56.5867 1.33707 56.5867H79.9582C80.68 56.5867 81.2635 56.0033 81.2635 55.2814V30.4881C81.2626 29.7644 80.6782 29.181 79.9582 29.181L79.9577 29.1814ZM67.8444 29.1814H60.9264L64.0412 23.7346C64.7603 25.9037 66.0993 27.7796 67.8441 29.1814H67.8444ZM68.3723 8.46545L69.4236 9.06711L57.9201 29.1814H56.5265L65.2503 13.9286L68.3723 8.46545ZM56.735 10.5617L62.3357 13.7639L53.5182 29.1805H46.0869L56.735 10.5617ZM24.8252 31.7911H78.6529V43.8618H24.8252V31.7911ZM2.60808 32.258C2.60808 27.6896 4.79901 25.0143 8.08873 22.4047C12.4415 18.9504 14.4695 14.6831 14.4695 8.9788C14.4695 6.88616 13.9006 5.62913 13.4855 4.71079C13.1342 3.93528 13.0969 3.78053 13.1915 3.51838C13.349 3.07965 14.3612 2.60907 16.2108 2.60907C17.7063 2.60907 19.4612 2.92492 20.792 3.43284C22.2274 3.98081 23.1851 4.80184 23.4225 5.68477C23.5827 6.27825 23.4107 6.89084 22.9146 7.50343L22.2411 8.32445C19.9062 11.1589 17.2602 14.373 17.2602 19.4603C17.2602 20.6618 17.405 21.8988 17.6926 23.1313C17.7372 23.3297 18.0959 24.9572 18.9997 26.7694C19.8035 28.3787 20.8748 29.8187 22.1809 31.0612V43.8629H14.2091C7.81287 43.862 2.60813 38.6563 2.60813 32.2582L2.60808 32.258ZM78.652 53.9743H2.64071V46.4713H78.652V53.9743Z" fill="#E30F16"/>
</svg>
