<svg width="41" height="41" viewBox="0 0 41 41" fill="none" xmlns="http://www.w3.org/2000/svg">
<path d="M4.45378 36.5472L4.45376 36.5472C3.82224 35.9159 3.46772 35.0595 3.46772 34.1668C3.46772 33.2737 3.82224 32.4176 4.45377 31.786C5.08502 31.1548 5.94143 30.8 6.8342 30.8C7.72725 30.8 8.58338 31.1548 9.21492 31.7861C9.84617 32.4176 10.201 33.2737 10.201 34.1668C10.201 35.0595 9.84616 35.9159 9.21491 36.5472C8.58337 37.1787 7.72726 37.5332 6.8342 37.5332C5.94142 37.5332 5.08502 37.1787 4.45378 36.5472ZM8.0776 35.4099C8.40727 35.0802 8.59272 34.6331 8.59272 34.1668C8.59272 33.7002 8.40727 33.2531 8.07759 32.9234C7.74791 32.5937 7.30077 32.4083 6.8342 32.4083C6.36795 32.4083 5.92079 32.5937 5.59111 32.9234L8.0776 35.4099Z" fill="white" stroke="#E30F16" stroke-width="0.1"/>
<path d="M8.54243 22.2582H8.59243L8.59243 22.2082L8.59273 17.0832L8.59273 17.0332H8.54273H5.12596H5.07596V17.0832V22.2082V22.2582H5.12596H8.54243ZM4.2717 15.425H9.3967H9.3967C9.60994 15.425 9.81458 15.5098 9.96537 15.6606C10.1162 15.8114 10.201 16.016 10.201 16.2293V23.0625C10.201 23.2757 10.1162 23.4804 9.96537 23.6312C9.81458 23.7819 9.60994 23.8668 9.3967 23.8668H4.2717C4.05849 23.8668 3.85411 23.782 3.70301 23.6311C3.55227 23.4804 3.46772 23.2758 3.46772 23.0625V16.2293C3.46772 15.785 3.82772 15.425 4.2717 15.425Z" fill="white" stroke="#E30F16" stroke-width="0.1"/>
<path d="M8.54243 12.0082H8.59243L8.59243 11.9582L8.59273 6.83324L8.59273 6.78324H8.54273H5.12596H5.07596V6.83324V11.9582V12.0082H5.12596H8.54243ZM4.2717 5.175H9.3967H9.3967C9.60994 5.175 9.81458 5.25982 9.96537 5.4106C10.1162 5.56139 10.201 5.76602 10.201 5.97926V12.8125C10.201 13.0257 10.1162 13.2304 9.96537 13.3812C9.81458 13.5319 9.60994 13.6168 9.3967 13.6168H4.2717C4.05849 13.6168 3.85411 13.532 3.70301 13.3811C3.55227 13.2304 3.46772 13.0258 3.46772 12.8125V5.97926C3.46772 5.53498 3.82772 5.175 4.2717 5.175Z" fill="white" stroke="#E30F16" stroke-width="0.1"/>
<path d="M27.3702 11.4227L27.3349 11.3873L27.2995 11.4226L24.2362 14.4856L24.2009 14.521L24.2362 14.5564L26.4452 16.7654L26.4806 16.8007L26.5159 16.7654L29.5789 13.7024L29.6143 13.667L29.5789 13.6317L27.3702 11.4227Z" fill="white" stroke="#E30F16" stroke-width="0.1"/>
<path d="M19.9349 16.5124L19.9324 16.515L15.6617 20.7857C15.3477 21.0996 15.3477 21.6088 15.6617 21.9227L19.0784 25.3395C19.3924 25.6534 19.9015 25.6534 20.2155 25.3395L24.4862 21.0688C24.4862 21.0688 24.4862 21.0688 24.4862 21.0688C24.8002 20.7545 24.8002 20.2457 24.4862 19.9314L19.9349 16.5124ZM19.9349 16.5124C20.2494 16.201 20.7564 16.2018 21.0697 16.515L24.4862 19.9314L19.9349 16.5124ZM19.6115 23.5984L19.6468 23.6338L19.6822 23.5984L22.7455 20.5354L22.7808 20.5001L22.7455 20.4647L20.5364 18.2557L20.5011 18.2204L20.4657 18.2557L17.4027 21.319L17.3674 21.3544L17.4027 21.3897L19.6115 23.5984Z" fill="white" stroke="#E30F16" stroke-width="0.1"/>
<path d="M13.5275 39.2418C13.6171 38.983 13.6642 38.7115 13.6669 38.4375V2.5625C13.6669 1.88298 13.3969 1.23117 12.9162 0.750446M13.5275 39.2418L0.750446 40.2496C0.269978 39.7688 0 39.117 0 38.4375V2.5625C0 1.883 0.269978 1.2312 0.750446 0.750446L0.785792 0.785811M13.5275 39.2418H13.5096V39.2918L13.5565 39.3091C13.5586 39.3033 13.5608 39.2976 13.5629 39.2918L13.5275 39.2418ZM12.9162 0.750446L12.8808 0.785802C12.4097 0.31471 11.7707 0.05 11.1044 0.05H2.5625C1.89626 0.05 1.25716 0.314702 0.785812 0.785791C0.785806 0.785798 0.785799 0.785805 0.785792 0.785811M12.9162 0.750446L12.8808 0.785803C13.3522 1.25715 13.6169 1.89625 13.6169 2.5625V38.4373C13.6141 38.7232 13.5619 39.0062 13.4627 39.2744L13.4378 39.3418H13.5096H38.4376C38.6774 39.3418 38.9075 39.2464 39.077 39.0769C39.2465 38.9073 39.3419 38.6773 39.3419 38.4375V29.8956C39.3419 29.6558 39.2465 29.426 39.077 29.2562L39.077 29.2562C38.9074 29.0867 38.6774 28.9916 38.4376 28.9916H16.2295C15.7853 28.9916 15.4253 28.6313 15.4253 28.1873C15.4253 27.7433 15.7853 27.3831 16.2295 27.3831H20.7565H20.7772L20.7919 27.3684L33.9617 14.1979L33.9617 14.1979C34.3018 13.8566 34.3018 13.3051 33.9617 12.9638L33.8763 12.8781V12.8787L28.0356 7.03851L28.0348 7.03775C27.6906 6.70838 27.1482 6.70838 26.804 7.03774L26.8032 7.03853L16.7985 17.0476C16.4835 17.3618 15.9735 17.3608 15.6595 17.0457L15.6595 17.0457C15.3453 16.7307 15.3464 16.2204 15.6614 15.9064L15.6615 15.9063L25.6654 5.90241C25.6655 5.90228 25.6657 5.90216 25.6658 5.90204C26.138 5.451 26.7661 5.19927 27.4195 5.19927C28.0728 5.19927 28.7009 5.45099 29.1732 5.90201C29.1733 5.90214 29.1734 5.90228 29.1736 5.90241L35.099 11.8313C35.099 11.8313 35.0991 11.8314 35.0991 11.8314C35.5635 12.297 35.8243 12.9278 35.8243 13.5855C35.8243 14.2432 35.5636 14.8739 35.099 15.3396L23.1366 27.2976L23.0512 27.383H23.172H38.4375L38.4375 27.3831C39.1037 27.3831 39.7428 27.6478 40.2142 28.1192C40.6853 28.5902 40.95 29.2293 40.95 29.8956V38.4375C40.95 39.1037 40.6853 39.7428 40.2142 40.2142C39.7429 40.6853 39.1038 40.95 38.4375 40.95H2.5625C1.89627 40.95 1.25719 40.6853 0.785811 40.2142M12.9162 0.750446L0.785811 40.2142M0.785792 0.785811C0.314701 1.25719 0.05 1.89627 0.05 2.5625V38.4375C0.05 39.1038 0.314709 39.7429 0.785811 40.2142M0.785792 0.785811L0.785811 40.2142M11.7449 1.92316L11.7448 1.92313C11.5751 1.75365 11.3453 1.65827 11.1055 1.65827H2.56359C2.06438 1.65827 1.65933 2.06332 1.65933 2.56253V38.4375C1.65933 38.9368 2.06438 39.3418 2.56359 39.3418H10.2511H11.1055C11.3453 39.3418 11.5751 39.2464 11.7448 39.0769L11.7449 39.0769C11.9144 38.9074 12.0095 38.6773 12.0095 38.4375V2.56253C12.0095 2.3228 11.9144 2.09272 11.7449 1.92316Z" fill="white" stroke="#E30F16" stroke-width="0.1"/>
<path d="M29.0425 32.4078H28.9925L28.9925 32.4578L28.9928 35.8745L28.9928 35.9245H29.0428H34.1675H34.2175V35.8745V32.4578V32.4078H34.1675H29.0425ZM35.826 36.7288C35.826 36.942 35.7412 37.1464 35.5904 37.2975C35.4396 37.4482 35.235 37.5328 35.0217 37.5328H28.1885C27.9752 37.5328 27.7706 37.4482 27.6199 37.2975C27.469 37.1464 27.3842 36.942 27.3842 36.7288V31.6038C27.3842 31.1595 27.7445 30.7995 28.1885 30.7995H35.0217C35.235 30.7995 35.4396 30.8843 35.5904 31.0351C35.7412 31.1859 35.826 31.3905 35.826 31.6038V36.7288Z" fill="white" stroke="#E30F16" stroke-width="0.1"/>
<path d="M18.7925 32.4078H18.7425L18.7425 32.4578L18.7428 35.8745L18.7428 35.9245H18.7928H23.9175H23.9675V35.8745V32.4578V32.4078H23.9175H18.7925ZM25.576 36.7288C25.576 36.942 25.4912 37.1464 25.3404 37.2975C25.1896 37.4482 24.985 37.5328 24.7717 37.5328H17.9385C17.7252 37.5328 17.5206 37.4482 17.3699 37.2975C17.219 37.1464 17.1342 36.942 17.1342 36.7288V31.6038C17.1342 31.1595 17.4945 30.7995 17.9385 30.7995H24.7717C24.985 30.7995 25.1896 30.8843 25.3404 31.0351C25.4912 31.1859 25.576 31.3905 25.576 31.6038V36.7288Z" fill="white" stroke="#E30F16" stroke-width="0.1"/>
</svg>
