<svg width="46" height="44" viewBox="0 0 46 44" fill="none" xmlns="http://www.w3.org/2000/svg">
<path d="M30.5 16.9999C30.3337 16.9999 30.1666 17.002 29.9999 17.0037V6.50016C29.9999 2.88937 22.7054 1 15.5 1C8.29435 1.00035 1 2.88928 1 6.50016V26.5001C1 30.1109 8.29453 32.0003 15.5 32.0003C15.6691 32.0003 15.8323 31.9926 16.0001 31.9908V37.5004C16.0001 41.1112 23.2946 43.0005 30.5 43.0005C37.7056 43.0005 45 41.1116 45 37.5004V22.5004C45 18.8893 37.7058 17.0003 30.5 17.0003V16.9999ZM15.5001 2.99991C23.1305 2.99991 28.0001 5.07302 28.0001 6.49981C28.0001 7.92659 23.1305 9.99971 15.5001 9.99971C7.86967 9.99971 3.00014 7.92659 3.00014 6.49981C3.00014 5.07302 7.86967 2.99991 15.5001 2.99991ZM3.00014 9.42989C5.66022 11.1249 10.5995 12 15.5001 12C20.4007 12 25.3402 11.1249 28.0001 9.42989V11.4999C28.0001 12.9267 23.1305 14.9998 15.5001 14.9998C7.86967 14.9998 3.00014 12.9267 3.00014 11.4999V9.42989ZM3.00014 14.4299C5.66022 16.1249 10.5995 16.9999 15.5001 16.9999C20.4007 16.9999 25.3402 16.1249 28.0001 14.4299V16.4999C28.0001 16.707 27.8682 16.9159 27.7116 17.0949C23.4531 17.3868 19.5096 18.3498 17.4643 19.9474C16.8149 19.9799 16.1567 20.0001 15.5004 20.0001C7.86999 20.0001 3.00045 17.927 3.00045 16.5002L3.00014 14.4299ZM3.00014 19.4299C5.66022 21.1248 10.5995 21.9999 15.5001 21.9999C15.6849 21.9999 15.8701 21.9944 16.055 21.9919C16.0222 22.1576 16.0002 22.326 16.0002 22.5001V24.9907C15.8325 24.9931 15.6692 25.0001 15.5001 25.0001C7.86967 25.0001 3.00013 22.927 3.00013 21.5002L3.00014 19.4299ZM15.5001 30.0003C7.86967 30.0003 3.00014 27.9272 3.00014 26.5005V24.4305C5.66022 26.1251 10.5995 27.0002 15.5001 27.0002C15.6692 27.0002 15.8325 26.9925 16.0002 26.9908V29.9909C15.8325 29.9934 15.6693 30.0003 15.5001 30.0003ZM30.5 41.0003C22.8696 41.0003 18.0001 38.9272 18.0001 37.5004V35.4304C20.6602 37.1251 25.5994 38.0001 30.5 38.0001C35.4007 38.0001 40.3402 37.1251 43 35.4301V37.5004C43 38.9272 38.1305 41.0003 30.5 41.0003ZM30.5 36.0003C22.8696 36.0003 18.0001 33.9272 18.0001 32.5004V30.4304C20.6602 32.1251 25.5994 33.0002 30.5 33.0002C35.4007 33.0002 40.3402 32.1251 43 30.4301V32.5004C43 33.9272 38.1305 36.0003 30.5 36.0003ZM30.5 31.0003C22.8696 31.0003 18.0001 28.9272 18.0001 27.5004V25.4305C20.6602 27.1251 25.5994 28.0002 30.5 28.0002C35.4007 28.0002 40.3402 27.1251 43 25.4301V27.5004C43 28.9272 38.1305 31.0003 30.5 31.0003ZM30.5 26.0004C22.8696 26.0004 18.0001 23.9272 18.0001 22.5005C18.0001 21.0737 22.8696 19.0006 30.5 19.0006C38.1305 19.0006 43 21.0737 43 22.5005C43 23.9272 38.1305 26.0004 30.5 26.0004Z" fill="white" stroke="#E30F16" stroke-width="0.5"/>
</svg>
