<svg width="40" height="80" viewBox="0 0 40 80" fill="none" xmlns="http://www.w3.org/2000/svg">
<path d="M1.31594 79.0036L38.1843 79.0036C38.9114 79.0036 39.501 78.414 39.501 77.6868L39.501 43.452C39.501 41.7061 38.8073 40.0315 37.573 38.7963C36.338 37.5619 34.6633 36.8684 32.9174 36.8684L29.0724 36.8684C27.8656 36.8719 26.7235 36.3229 25.9717 35.3788C25.2198 34.4342 24.9412 33.1986 25.2146 32.0229C25.465 30.9566 25.7412 29.8502 26.0046 28.7181C27.4659 22.6741 28.9673 16.4196 28.9673 11.8505C28.9673 4.54277 20.6849 0.316298 20.3428 0.144598C19.9713 -0.0481966 19.5293 -0.0481966 19.1578 0.144598C18.8157 0.316237 10.5333 4.54277 10.5333 11.8505C10.5333 16.4196 12.0346 22.6741 13.496 28.7181C13.7593 29.8503 14.0356 30.9566 14.286 32.0229L14.286 32.0235C14.5594 33.1991 14.2807 34.4347 13.5289 35.3794C12.7771 36.3234 11.635 36.8725 10.4282 36.8689L6.58324 36.8689C4.83734 36.8689 3.16277 37.5626 1.9276 38.7969C0.693176 40.0319 -0.000385838 41.7067 -0.000385991 43.4526L-0.000388984 77.6874C-0.000389015 78.0366 0.13834 78.3717 0.385223 78.6185C0.632111 78.8654 0.967171 79.0041 1.31634 79.0041L1.31594 79.0036ZM6.58285 39.5018L10.4278 39.5018C12.4365 39.5053 14.3369 38.5901 15.5859 37.017C16.8357 35.444 17.2977 33.386 16.8404 31.4304C16.5899 30.3505 16.3266 29.2314 16.0503 28.0991C14.7071 22.4766 13.1665 16.1034 13.1665 11.85C13.1665 7.14919 18.0383 3.84443 19.7501 2.83033C21.4618 3.84433 26.3337 7.14904 26.3337 11.85C26.3337 16.1029 24.7931 22.476 23.4499 28.0991C23.1736 29.2313 22.9102 30.3505 22.6598 31.4304C22.2025 33.386 22.6645 35.444 23.9142 37.017C25.1634 38.59 27.0638 39.5053 29.0723 39.5018L32.9173 39.5018C33.7338 39.5042 34.5297 39.7581 35.1968 40.2295C35.8634 40.701 36.369 41.3664 36.6435 42.1352L2.85706 42.1352C3.13157 41.3664 3.6371 40.701 4.3037 40.2295C4.97088 39.7581 5.7668 39.5042 6.58321 39.5018L6.58285 39.5018ZM2.63267 44.7687L36.8675 44.7687L36.8675 52.6691L2.63267 52.6691L2.63267 44.7687ZM2.63267 55.3025L36.8675 55.3025L36.8675 76.3701L34.2341 76.3701L34.2341 61.8861L31.6006 61.8861L31.6006 76.3701L28.9672 76.3701L28.9672 61.8861L26.3337 61.8861L26.3337 76.3701L23.7003 76.3701L23.7003 61.8861L21.0668 61.8861L21.0668 76.3701L18.4334 76.3701L18.4334 61.8861L15.7999 61.8861L15.7999 76.3701L13.1665 76.3701L13.1665 61.8861L10.533 61.8861L10.533 76.3701L7.89957 76.3701L7.89957 61.8861L5.26612 61.8861L5.26612 76.3701L2.63267 76.3701L2.63267 55.3025Z" fill="#E30F16"/>
<path d="M23.7002 11.8507C23.7002 10.8032 23.284 9.79794 22.5434 9.05741C21.8027 8.31689 20.7975 7.90058 19.7501 7.90058C18.7027 7.90058 17.6974 8.31675 16.9568 9.05741C16.2163 9.79808 15.8 10.8033 15.8 11.8507C15.8 12.898 16.2162 13.9034 16.9568 14.6439C17.6975 15.3845 18.7027 15.8008 19.7501 15.8008C20.7975 15.8008 21.8028 15.3846 22.5434 14.6439C23.2839 13.9033 23.7002 12.898 23.7002 11.8507ZM19.75 13.1674C19.2174 13.1674 18.7372 12.8465 18.5338 12.3544C18.3298 11.8624 18.4421 11.2964 18.8189 10.9196C19.1957 10.5428 19.7618 10.4305 20.2538 10.6345C20.7458 10.8379 21.0667 11.3181 21.0667 11.8507C21.0667 12.5778 20.4772 13.1674 19.75 13.1674Z" fill="#E30F16"/>
</svg>
