<svg width="23" height="24" viewBox="0 0 23 24" fill="none" xmlns="http://www.w3.org/2000/svg">
<path d="M4.25795 11.0697H11.9215V13.6241H10.2184C9.74774 13.6241 9.3668 14.0052 9.3668 14.4756L9.3668 21.2876C9.3668 22.6963 10.5125 23.842 11.9212 23.842H13.6243C15.033 23.842 16.1787 22.6963 16.1787 21.2876L16.1789 14.4756C16.1789 14.0054 15.798 13.6241 15.3273 13.6241H13.6242V11.0697C13.6242 10.1304 12.8602 9.36656 11.9211 9.36656L4.25764 9.36676C2.84897 9.36676 1.70324 8.22103 1.70324 6.81236L1.70324 5.10925C1.70324 4.63983 2.08496 4.2577 2.55479 4.2577H3.40635V5.10925C3.40635 6.04849 4.17036 6.81236 5.10945 6.81236L20.4365 6.81236C21.3753 6.81236 22.1396 6.04854 22.1396 5.10925L22.1392 1.7031C22.1392 0.763866 21.3751 0 20.4361 0L5.10905 0.000197986C4.17022 0.000197986 3.40595 0.764014 3.40595 1.7033V2.55485H2.5544C1.14572 2.55485 0 3.70057 0 5.10925L0 6.81235C0.000197974 9.15986 1.91 11.0696 4.2577 11.0696L4.25795 11.0697ZM14.476 21.2877C14.476 21.7571 14.0942 22.1392 13.6244 22.1392H11.9213C11.4515 22.1392 11.0698 21.7571 11.0698 21.2877L11.0699 15.3272H14.4759L14.476 21.2877ZM5.10945 1.70316L20.4365 1.70316L20.4372 5.10911L5.10974 5.1093L5.10945 1.70316Z" fill="#E30F16"/>
</svg>
